<svg id="svg" version="1.1" xmlns="http://www.w3.org/2000/svg" xmlns:xlink="http://www.w3.org/1999/xlink" width="400" height="400" viewBox="0, 0, 400,400"><g id="svgg"><path id="path0" d="M48.800 13.199 C 48.470 13.413,46.906 13.591,45.324 13.594 C 43.742 13.597,42.336 13.780,42.200 14.000 C 42.064 14.220,41.333 14.400,40.576 14.400 C 39.819 14.400,39.200 14.580,39.200 14.800 C 39.200 15.020,38.838 15.200,38.395 15.200 C 37.952 15.200,37.277 15.357,36.895 15.550 C 36.513 15.742,35.390 16.297,34.400 16.782 C 31.531 18.188,29.486 19.348,28.611 20.067 C 28.165 20.433,26.874 21.458,25.741 22.343 C 24.609 23.229,22.818 25.089,21.760 26.477 C 20.703 27.864,19.739 29.090,19.619 29.200 C 19.242 29.544,18.046 31.710,16.967 34.000 C 16.397 35.210,15.766 36.513,15.565 36.895 C 15.364 37.277,15.200 37.952,15.200 38.395 C 15.200 38.838,15.020 39.200,14.800 39.200 C 14.580 39.200,14.400 39.794,14.400 40.520 C 14.400 41.246,14.238 42.011,14.039 42.220 C 13.171 43.134,13.088 56.902,13.088 200.000 C 13.088 343.098,13.171 356.866,14.039 357.780 C 14.238 357.989,14.400 358.754,14.400 359.480 C 14.400 360.206,14.580 360.800,14.800 360.800 C 15.020 360.800,15.200 361.162,15.200 361.605 C 15.200 362.048,15.364 362.723,15.565 363.105 C 15.766 363.487,16.397 364.790,16.967 366.000 C 18.046 368.290,19.242 370.456,19.619 370.800 C 19.739 370.910,20.703 372.136,21.760 373.523 C 22.818 374.911,24.609 376.771,25.741 377.657 C 26.874 378.542,28.165 379.567,28.611 379.933 C 29.486 380.652,31.531 381.812,34.400 383.218 C 35.390 383.703,36.513 384.258,36.895 384.450 C 37.277 384.643,37.952 384.800,38.395 384.800 C 38.838 384.800,39.200 384.980,39.200 385.200 C 39.200 385.420,39.794 385.600,40.520 385.600 C 41.246 385.600,42.011 385.762,42.220 385.961 C 43.134 386.829,56.895 386.913,200.000 386.921 C 356.766 386.930,356.682 386.931,361.000 385.223 C 363.358 384.291,364.010 384.002,366.350 382.856 C 374.835 378.698,380.661 372.256,384.489 362.800 C 384.711 362.250,385.052 361.487,385.247 361.105 C 385.441 360.723,385.600 359.904,385.600 359.285 C 385.600 358.666,385.762 357.989,385.961 357.780 C 387.432 356.231,387.429 95.600,385.958 95.600 C 385.761 95.600,385.600 95.240,385.600 94.800 C 385.600 94.360,385.432 94.000,385.227 94.000 C 385.022 94.000,384.743 93.652,384.608 93.226 C 384.286 92.210,307.796 15.716,306.780 15.394 C 306.351 15.258,306.000 14.978,306.000 14.773 C 306.000 14.568,305.640 14.400,305.200 14.400 C 304.760 14.400,304.400 14.239,304.400 14.042 C 304.400 13.036,50.346 12.198,48.800 13.199 M125.352 75.300 C 125.506 112.058,125.648 117.760,126.435 118.580 C 126.636 118.789,126.800 119.286,126.800 119.685 C 126.800 120.084,126.960 120.723,127.156 121.105 C 127.352 121.487,127.920 122.655,128.419 123.700 C 128.918 124.745,129.477 125.600,129.663 125.600 C 129.848 125.600,130.000 125.862,130.000 126.183 C 130.000 127.474,136.358 133.004,139.400 134.359 C 140.060 134.653,140.913 135.052,141.295 135.247 C 141.677 135.441,142.341 135.600,142.771 135.600 C 143.201 135.600,143.651 135.758,143.770 135.951 C 144.684 137.430,255.316 137.430,256.230 135.951 C 256.349 135.758,256.799 135.600,257.229 135.600 C 257.659 135.600,258.323 135.441,258.705 135.247 C 259.087 135.052,259.940 134.653,260.600 134.359 C 264.892 132.448,270.048 127.292,271.959 123.000 C 272.253 122.340,272.652 121.487,272.847 121.105 C 273.041 120.723,273.200 120.084,273.200 119.685 C 273.200 119.286,273.364 118.789,273.565 118.580 C 274.352 117.760,274.494 112.058,274.648 75.300 L 274.808 37.200 285.103 37.200 L 295.398 37.200 329.099 70.899 L 362.800 104.598 362.800 229.105 C 362.800 300.355,362.649 353.908,362.447 354.305 C 362.252 354.687,361.847 355.540,361.547 356.200 C 361.246 356.860,360.190 358.210,359.200 359.200 C 358.210 360.190,356.860 361.246,356.200 361.547 C 355.540 361.847,354.687 362.252,354.305 362.447 C 353.923 362.641,347.130 362.800,339.209 362.800 L 324.807 362.800 324.638 318.500 C 324.474 275.239,324.327 268.197,323.570 267.420 C 323.366 267.211,323.200 266.457,323.200 265.744 C 323.200 265.031,323.020 264.336,322.800 264.200 C 322.580 264.064,322.400 263.513,322.400 262.976 C 322.400 262.439,322.220 262.000,322.000 262.000 C 321.780 262.000,321.600 261.755,321.600 261.456 C 321.600 260.799,319.124 255.855,318.700 255.667 C 318.535 255.593,318.400 255.358,318.400 255.143 C 318.400 253.692,308.798 244.030,307.333 244.007 C 307.077 244.003,306.807 243.864,306.733 243.698 C 306.660 243.532,305.340 242.790,303.800 242.049 C 294.817 237.727,301.815 238.000,199.989 238.000 C 140.920 238.000,111.435 238.137,109.164 238.423 C 105.659 238.863,101.176 239.795,99.800 240.369 C 97.587 241.291,93.384 243.433,93.267 243.698 C 93.193 243.864,92.905 244.000,92.626 244.000 C 92.347 244.000,91.554 244.540,90.863 245.200 C 90.172 245.860,89.492 246.400,89.352 246.400 C 88.891 246.400,83.739 251.841,82.974 253.136 C 82.564 253.831,82.086 254.400,81.914 254.400 C 81.741 254.400,81.600 254.655,81.600 254.967 C 81.600 255.278,81.465 255.593,81.300 255.667 C 80.876 255.855,78.400 260.799,78.400 261.456 C 78.400 261.755,78.220 262.000,78.000 262.000 C 77.780 262.000,77.600 262.439,77.600 262.976 C 77.600 263.513,77.420 264.064,77.200 264.200 C 76.980 264.336,76.800 265.031,76.800 265.744 C 76.800 266.457,76.634 267.211,76.430 267.420 C 75.673 268.197,75.526 275.239,75.362 318.500 L 75.193 362.800 60.620 362.800 C 51.336 362.800,45.957 362.655,45.800 362.400 C 45.664 362.180,45.248 361.997,44.876 361.993 C 43.571 361.979,39.398 358.197,38.453 356.172 C 38.153 355.527,37.748 354.687,37.553 354.305 C 37.042 353.300,37.089 46.116,37.600 45.800 C 37.820 45.664,38.000 45.237,38.000 44.852 C 38.000 44.466,38.360 43.764,38.800 43.292 C 39.240 42.820,39.600 42.301,39.600 42.139 C 39.600 41.720,41.681 39.600,42.092 39.600 C 42.280 39.600,42.820 39.240,43.292 38.800 C 43.764 38.360,44.466 38.000,44.852 38.000 C 45.237 38.000,45.664 37.820,45.800 37.600 C 45.962 37.338,59.669 37.200,85.620 37.200 L 125.192 37.200 125.352 75.300 M250.400 75.000 L 250.400 112.800 200.000 112.800 L 149.600 112.800 149.600 75.000 L 149.600 37.200 200.000 37.200 L 250.400 37.200 250.400 75.000 M291.354 262.469 C 293.035 262.947,296.752 265.301,297.309 266.240 C 297.479 266.526,297.839 266.994,298.109 267.280 C 298.379 267.566,298.846 268.340,299.147 269.000 C 299.447 269.660,299.852 270.513,300.047 270.895 C 300.245 271.284,300.400 291.598,300.400 317.195 L 300.400 362.800 200.000 362.800 L 99.600 362.800 99.600 317.195 C 99.600 291.598,99.755 271.284,99.953 270.895 C 100.148 270.513,100.553 269.660,100.853 269.000 C 101.154 268.340,101.715 267.451,102.100 267.025 C 102.485 266.598,102.800 266.148,102.801 266.025 C 102.802 265.581,106.930 262.990,108.350 262.542 C 110.462 261.875,289.016 261.803,291.354 262.469 " stroke="none" fill="#000000" fill-rule="evenodd"></path><path id="path1" d="M48.800 13.199 C 48.470 13.413,46.906 13.591,45.324 13.594 C 43.742 13.597,42.336 13.780,42.200 14.000 C 42.064 14.220,41.333 14.400,40.576 14.400 C 39.819 14.400,39.200 14.580,39.200 14.800 C 39.200 15.020,38.838 15.200,38.395 15.200 C 37.952 15.200,37.277 15.357,36.895 15.550 C 36.513 15.742,35.390 16.297,34.400 16.782 C 31.531 18.188,29.486 19.348,28.611 20.067 C 28.165 20.433,26.874 21.458,25.741 22.343 C 24.609 23.229,22.818 25.089,21.760 26.477 C 20.703 27.864,19.739 29.090,19.619 29.200 C 19.242 29.544,18.046 31.710,16.967 34.000 C 16.397 35.210,15.766 36.513,15.565 36.895 C 15.364 37.277,15.200 37.952,15.200 38.395 C 15.200 38.838,15.020 39.200,14.800 39.200 C 14.580 39.200,14.400 39.794,14.400 40.520 C 14.400 41.246,14.238 42.011,14.039 42.220 C 13.171 43.134,13.088 56.902,13.088 200.000 C 13.088 343.098,13.171 356.866,14.039 357.780 C 14.238 357.989,14.400 358.754,14.400 359.480 C 14.400 360.206,14.580 360.800,14.800 360.800 C 15.020 360.800,15.200 361.162,15.200 361.605 C 15.200 362.048,15.364 362.723,15.565 363.105 C 15.766 363.487,16.397 364.790,16.967 366.000 C 18.046 368.290,19.242 370.456,19.619 370.800 C 19.739 370.910,20.703 372.136,21.760 373.523 C 22.818 374.911,24.609 376.771,25.741 377.657 C 26.874 378.542,28.165 379.567,28.611 379.933 C 29.486 380.652,31.531 381.812,34.400 383.218 C 35.390 383.703,36.513 384.258,36.895 384.450 C 37.277 384.643,37.952 384.800,38.395 384.800 C 38.838 384.800,39.200 384.980,39.200 385.200 C 39.200 385.420,39.794 385.600,40.520 385.600 C 41.246 385.600,42.011 385.762,42.220 385.961 C 43.134 386.829,56.895 386.913,200.000 386.921 C 356.766 386.930,356.682 386.931,361.000 385.223 C 363.358 384.291,364.010 384.002,366.350 382.856 C 374.835 378.698,380.661 372.256,384.489 362.800 C 384.711 362.250,385.052 361.487,385.247 361.105 C 385.441 360.723,385.600 359.904,385.600 359.285 C 385.600 358.666,385.762 357.989,385.961 357.780 C 387.432 356.231,387.429 95.600,385.958 95.600 C 385.761 95.600,385.600 95.240,385.600 94.800 C 385.600 94.360,385.432 94.000,385.227 94.000 C 385.022 94.000,384.743 93.652,384.608 93.226 C 384.286 92.210,307.796 15.716,306.780 15.394 C 306.351 15.258,306.000 14.978,306.000 14.773 C 306.000 14.568,305.640 14.400,305.200 14.400 C 304.760 14.400,304.400 14.239,304.400 14.042 C 304.400 13.036,50.346 12.198,48.800 13.199 M125.352 75.300 C 125.506 112.058,125.648 117.760,126.435 118.580 C 126.636 118.789,126.800 119.286,126.800 119.685 C 126.800 120.084,126.960 120.723,127.156 121.105 C 127.352 121.487,127.920 122.655,128.419 123.700 C 128.918 124.745,129.477 125.600,129.663 125.600 C 129.848 125.600,130.000 125.862,130.000 126.183 C 130.000 127.474,136.358 133.004,139.400 134.359 C 140.060 134.653,140.913 135.052,141.295 135.247 C 141.677 135.441,142.341 135.600,142.771 135.600 C 143.201 135.600,143.651 135.758,143.770 135.951 C 144.684 137.430,255.316 137.430,256.230 135.951 C 256.349 135.758,256.799 135.600,257.229 135.600 C 257.659 135.600,258.323 135.441,258.705 135.247 C 259.087 135.052,259.940 134.653,260.600 134.359 C 264.892 132.448,270.048 127.292,271.959 123.000 C 272.253 122.340,272.652 121.487,272.847 121.105 C 273.041 120.723,273.200 120.084,273.200 119.685 C 273.200 119.286,273.364 118.789,273.565 118.580 C 274.352 117.760,274.494 112.058,274.648 75.300 L 274.808 37.200 285.103 37.200 L 295.398 37.200 329.099 70.899 L 362.800 104.598 362.800 229.105 C 362.800 300.355,362.649 353.908,362.447 354.305 C 362.252 354.687,361.847 355.540,361.547 356.200 C 361.246 356.860,360.190 358.210,359.200 359.200 C 358.210 360.190,356.860 361.246,356.200 361.547 C 355.540 361.847,354.687 362.252,354.305 362.447 C 353.923 362.641,347.130 362.800,339.209 362.800 L 324.807 362.800 324.638 318.500 C 324.474 275.239,324.327 268.197,323.570 267.420 C 323.366 267.211,323.200 266.457,323.200 265.744 C 323.200 265.031,323.020 264.336,322.800 264.200 C 322.580 264.064,322.400 263.513,322.400 262.976 C 322.400 262.439,322.220 262.000,322.000 262.000 C 321.780 262.000,321.600 261.755,321.600 261.456 C 321.600 260.799,319.124 255.855,318.700 255.667 C 318.535 255.593,318.400 255.358,318.400 255.143 C 318.400 253.692,308.798 244.030,307.333 244.007 C 307.077 244.003,306.807 243.864,306.733 243.698 C 306.660 243.532,305.340 242.790,303.800 242.049 C 294.817 237.727,301.815 238.000,199.989 238.000 C 140.920 238.000,111.435 238.137,109.164 238.423 C 105.659 238.863,101.176 239.795,99.800 240.369 C 97.587 241.291,93.384 243.433,93.267 243.698 C 93.193 243.864,92.905 244.000,92.626 244.000 C 92.347 244.000,91.554 244.540,90.863 245.200 C 90.172 245.860,89.492 246.400,89.352 246.400 C 88.891 246.400,83.739 251.841,82.974 253.136 C 82.564 253.831,82.086 254.400,81.914 254.400 C 81.741 254.400,81.600 254.655,81.600 254.967 C 81.600 255.278,81.465 255.593,81.300 255.667 C 80.876 255.855,78.400 260.799,78.400 261.456 C 78.400 261.755,78.220 262.000,78.000 262.000 C 77.780 262.000,77.600 262.439,77.600 262.976 C 77.600 263.513,77.420 264.064,77.200 264.200 C 76.980 264.336,76.800 265.031,76.800 265.744 C 76.800 266.457,76.634 267.211,76.430 267.420 C 75.673 268.197,75.526 275.239,75.362 318.500 L 75.193 362.800 60.620 362.800 C 51.336 362.800,45.957 362.655,45.800 362.400 C 45.664 362.180,45.248 361.997,44.876 361.993 C 43.571 361.979,39.398 358.197,38.453 356.172 C 38.153 355.527,37.748 354.687,37.553 354.305 C 37.042 353.300,37.089 46.116,37.600 45.800 C 37.820 45.664,38.000 45.237,38.000 44.852 C 38.000 44.466,38.360 43.764,38.800 43.292 C 39.240 42.820,39.600 42.301,39.600 42.139 C 39.600 41.720,41.681 39.600,42.092 39.600 C 42.280 39.600,42.820 39.240,43.292 38.800 C 43.764 38.360,44.466 38.000,44.852 38.000 C 45.237 38.000,45.664 37.820,45.800 37.600 C 45.962 37.338,59.669 37.200,85.620 37.200 L 125.192 37.200 125.352 75.300 M250.400 75.000 L 250.400 112.800 200.000 112.800 L 149.600 112.800 149.600 75.000 L 149.600 37.200 200.000 37.200 L 250.400 37.200 250.400 75.000 M291.354 262.469 C 293.035 262.947,296.752 265.301,297.309 266.240 C 297.479 266.526,297.839 266.994,298.109 267.280 C 298.379 267.566,298.846 268.340,299.147 269.000 C 299.447 269.660,299.852 270.513,300.047 270.895 C 300.245 271.284,300.400 291.598,300.400 317.195 L 300.400 362.800 200.000 362.800 L 99.600 362.800 99.600 317.195 C 99.600 291.598,99.755 271.284,99.953 270.895 C 100.148 270.513,100.553 269.660,100.853 269.000 C 101.154 268.340,101.715 267.451,102.100 267.025 C 102.485 266.598,102.800 266.148,102.801 266.025 C 102.802 265.581,106.930 262.990,108.350 262.542 C 110.462 261.875,289.016 261.803,291.354 262.469 " stroke="none" fill="#000000" fill-rule="evenodd"></path><path id="path2" d="M48.800 13.199 C 48.470 13.413,46.906 13.591,45.324 13.594 C 43.742 13.597,42.336 13.780,42.200 14.000 C 42.064 14.220,41.333 14.400,40.576 14.400 C 39.819 14.400,39.200 14.580,39.200 14.800 C 39.200 15.020,38.838 15.200,38.395 15.200 C 37.952 15.200,37.277 15.357,36.895 15.550 C 36.513 15.742,35.390 16.297,34.400 16.782 C 31.531 18.188,29.486 19.348,28.611 20.067 C 28.165 20.433,26.874 21.458,25.741 22.343 C 24.609 23.229,22.818 25.089,21.760 26.477 C 20.703 27.864,19.739 29.090,19.619 29.200 C 19.242 29.544,18.046 31.710,16.967 34.000 C 16.397 35.210,15.766 36.513,15.565 36.895 C 15.364 37.277,15.200 37.952,15.200 38.395 C 15.200 38.838,15.020 39.200,14.800 39.200 C 14.580 39.200,14.400 39.794,14.400 40.520 C 14.400 41.246,14.238 42.011,14.039 42.220 C 13.171 43.134,13.088 56.902,13.088 200.000 C 13.088 343.098,13.171 356.866,14.039 357.780 C 14.238 357.989,14.400 358.754,14.400 359.480 C 14.400 360.206,14.580 360.800,14.800 360.800 C 15.020 360.800,15.200 361.162,15.200 361.605 C 15.200 362.048,15.364 362.723,15.565 363.105 C 15.766 363.487,16.397 364.790,16.967 366.000 C 18.046 368.290,19.242 370.456,19.619 370.800 C 19.739 370.910,20.703 372.136,21.760 373.523 C 22.818 374.911,24.609 376.771,25.741 377.657 C 26.874 378.542,28.165 379.567,28.611 379.933 C 29.486 380.652,31.531 381.812,34.400 383.218 C 35.390 383.703,36.513 384.258,36.895 384.450 C 37.277 384.643,37.952 384.800,38.395 384.800 C 38.838 384.800,39.200 384.980,39.200 385.200 C 39.200 385.420,39.794 385.600,40.520 385.600 C 41.246 385.600,42.011 385.762,42.220 385.961 C 43.134 386.829,56.895 386.913,200.000 386.921 C 356.766 386.930,356.682 386.931,361.000 385.223 C 363.358 384.291,364.010 384.002,366.350 382.856 C 374.835 378.698,380.661 372.256,384.489 362.800 C 384.711 362.250,385.052 361.487,385.247 361.105 C 385.441 360.723,385.600 359.904,385.600 359.285 C 385.600 358.666,385.762 357.989,385.961 357.780 C 387.432 356.231,387.429 95.600,385.958 95.600 C 385.761 95.600,385.600 95.240,385.600 94.800 C 385.600 94.360,385.432 94.000,385.227 94.000 C 385.022 94.000,384.743 93.652,384.608 93.226 C 384.286 92.210,307.796 15.716,306.780 15.394 C 306.351 15.258,306.000 14.978,306.000 14.773 C 306.000 14.568,305.640 14.400,305.200 14.400 C 304.760 14.400,304.400 14.239,304.400 14.042 C 304.400 13.036,50.346 12.198,48.800 13.199 M125.352 75.300 C 125.506 112.058,125.648 117.760,126.435 118.580 C 126.636 118.789,126.800 119.286,126.800 119.685 C 126.800 120.084,126.960 120.723,127.156 121.105 C 127.352 121.487,127.920 122.655,128.419 123.700 C 128.918 124.745,129.477 125.600,129.663 125.600 C 129.848 125.600,130.000 125.862,130.000 126.183 C 130.000 127.474,136.358 133.004,139.400 134.359 C 140.060 134.653,140.913 135.052,141.295 135.247 C 141.677 135.441,142.341 135.600,142.771 135.600 C 143.201 135.600,143.651 135.758,143.770 135.951 C 144.684 137.430,255.316 137.430,256.230 135.951 C 256.349 135.758,256.799 135.600,257.229 135.600 C 257.659 135.600,258.323 135.441,258.705 135.247 C 259.087 135.052,259.940 134.653,260.600 134.359 C 264.892 132.448,270.048 127.292,271.959 123.000 C 272.253 122.340,272.652 121.487,272.847 121.105 C 273.041 120.723,273.200 120.084,273.200 119.685 C 273.200 119.286,273.364 118.789,273.565 118.580 C 274.352 117.760,274.494 112.058,274.648 75.300 L 274.808 37.200 285.103 37.200 L 295.398 37.200 329.099 70.899 L 362.800 104.598 362.800 229.105 C 362.800 300.355,362.649 353.908,362.447 354.305 C 362.252 354.687,361.847 355.540,361.547 356.200 C 361.246 356.860,360.190 358.210,359.200 359.200 C 358.210 360.190,356.860 361.246,356.200 361.547 C 355.540 361.847,354.687 362.252,354.305 362.447 C 353.923 362.641,347.130 362.800,339.209 362.800 L 324.807 362.800 324.638 318.500 C 324.474 275.239,324.327 268.197,323.570 267.420 C 323.366 267.211,323.200 266.457,323.200 265.744 C 323.200 265.031,323.020 264.336,322.800 264.200 C 322.580 264.064,322.400 263.513,322.400 262.976 C 322.400 262.439,322.220 262.000,322.000 262.000 C 321.780 262.000,321.600 261.755,321.600 261.456 C 321.600 260.799,319.124 255.855,318.700 255.667 C 318.535 255.593,318.400 255.358,318.400 255.143 C 318.400 253.692,308.798 244.030,307.333 244.007 C 307.077 244.003,306.807 243.864,306.733 243.698 C 306.660 243.532,305.340 242.790,303.800 242.049 C 294.817 237.727,301.815 238.000,199.989 238.000 C 140.920 238.000,111.435 238.137,109.164 238.423 C 105.659 238.863,101.176 239.795,99.800 240.369 C 97.587 241.291,93.384 243.433,93.267 243.698 C 93.193 243.864,92.905 244.000,92.626 244.000 C 92.347 244.000,91.554 244.540,90.863 245.200 C 90.172 245.860,89.492 246.400,89.352 246.400 C 88.891 246.400,83.739 251.841,82.974 253.136 C 82.564 253.831,82.086 254.400,81.914 254.400 C 81.741 254.400,81.600 254.655,81.600 254.967 C 81.600 255.278,81.465 255.593,81.300 255.667 C 80.876 255.855,78.400 260.799,78.400 261.456 C 78.400 261.755,78.220 262.000,78.000 262.000 C 77.780 262.000,77.600 262.439,77.600 262.976 C 77.600 263.513,77.420 264.064,77.200 264.200 C 76.980 264.336,76.800 265.031,76.800 265.744 C 76.800 266.457,76.634 267.211,76.430 267.420 C 75.673 268.197,75.526 275.239,75.362 318.500 L 75.193 362.800 60.620 362.800 C 51.336 362.800,45.957 362.655,45.800 362.400 C 45.664 362.180,45.248 361.997,44.876 361.993 C 43.571 361.979,39.398 358.197,38.453 356.172 C 38.153 355.527,37.748 354.687,37.553 354.305 C 37.042 353.300,37.089 46.116,37.600 45.800 C 37.820 45.664,38.000 45.237,38.000 44.852 C 38.000 44.466,38.360 43.764,38.800 43.292 C 39.240 42.820,39.600 42.301,39.600 42.139 C 39.600 41.720,41.681 39.600,42.092 39.600 C 42.280 39.600,42.820 39.240,43.292 38.800 C 43.764 38.360,44.466 38.000,44.852 38.000 C 45.237 38.000,45.664 37.820,45.800 37.600 C 45.962 37.338,59.669 37.200,85.620 37.200 L 125.192 37.200 125.352 75.300 M250.400 75.000 L 250.400 112.800 200.000 112.800 L 149.600 112.800 149.600 75.000 L 149.600 37.200 200.000 37.200 L 250.400 37.200 250.400 75.000 M291.354 262.469 C 293.035 262.947,296.752 265.301,297.309 266.240 C 297.479 266.526,297.839 266.994,298.109 267.280 C 298.379 267.566,298.846 268.340,299.147 269.000 C 299.447 269.660,299.852 270.513,300.047 270.895 C 300.245 271.284,300.400 291.598,300.400 317.195 L 300.400 362.800 200.000 362.800 L 99.600 362.800 99.600 317.195 C 99.600 291.598,99.755 271.284,99.953 270.895 C 100.148 270.513,100.553 269.660,100.853 269.000 C 101.154 268.340,101.715 267.451,102.100 267.025 C 102.485 266.598,102.800 266.148,102.801 266.025 C 102.802 265.581,106.930 262.990,108.350 262.542 C 110.462 261.875,289.016 261.803,291.354 262.469 " stroke="none" fill="#000000" fill-rule="evenodd"></path><path id="path3" d="M48.800 13.199 C 48.470 13.413,46.906 13.591,45.324 13.594 C 43.742 13.597,42.336 13.780,42.200 14.000 C 42.064 14.220,41.333 14.400,40.576 14.400 C 39.819 14.400,39.200 14.580,39.200 14.800 C 39.200 15.020,38.838 15.200,38.395 15.200 C 37.952 15.200,37.277 15.357,36.895 15.550 C 36.513 15.742,35.390 16.297,34.400 16.782 C 31.531 18.188,29.486 19.348,28.611 20.067 C 28.165 20.433,26.874 21.458,25.741 22.343 C 24.609 23.229,22.818 25.089,21.760 26.477 C 20.703 27.864,19.739 29.090,19.619 29.200 C 19.242 29.544,18.046 31.710,16.967 34.000 C 16.397 35.210,15.766 36.513,15.565 36.895 C 15.364 37.277,15.200 37.952,15.200 38.395 C 15.200 38.838,15.020 39.200,14.800 39.200 C 14.580 39.200,14.400 39.794,14.400 40.520 C 14.400 41.246,14.238 42.011,14.039 42.220 C 13.171 43.134,13.088 56.902,13.088 200.000 C 13.088 343.098,13.171 356.866,14.039 357.780 C 14.238 357.989,14.400 358.754,14.400 359.480 C 14.400 360.206,14.580 360.800,14.800 360.800 C 15.020 360.800,15.200 361.162,15.200 361.605 C 15.200 362.048,15.364 362.723,15.565 363.105 C 15.766 363.487,16.397 364.790,16.967 366.000 C 18.046 368.290,19.242 370.456,19.619 370.800 C 19.739 370.910,20.703 372.136,21.760 373.523 C 22.818 374.911,24.609 376.771,25.741 377.657 C 26.874 378.542,28.165 379.567,28.611 379.933 C 29.486 380.652,31.531 381.812,34.400 383.218 C 35.390 383.703,36.513 384.258,36.895 384.450 C 37.277 384.643,37.952 384.800,38.395 384.800 C 38.838 384.800,39.200 384.980,39.200 385.200 C 39.200 385.420,39.794 385.600,40.520 385.600 C 41.246 385.600,42.011 385.762,42.220 385.961 C 43.134 386.829,56.895 386.913,200.000 386.921 C 356.766 386.930,356.682 386.931,361.000 385.223 C 363.358 384.291,364.010 384.002,366.350 382.856 C 374.835 378.698,380.661 372.256,384.489 362.800 C 384.711 362.250,385.052 361.487,385.247 361.105 C 385.441 360.723,385.600 359.904,385.600 359.285 C 385.600 358.666,385.762 357.989,385.961 357.780 C 387.432 356.231,387.429 95.600,385.958 95.600 C 385.761 95.600,385.600 95.240,385.600 94.800 C 385.600 94.360,385.432 94.000,385.227 94.000 C 385.022 94.000,384.743 93.652,384.608 93.226 C 384.286 92.210,307.796 15.716,306.780 15.394 C 306.351 15.258,306.000 14.978,306.000 14.773 C 306.000 14.568,305.640 14.400,305.200 14.400 C 304.760 14.400,304.400 14.239,304.400 14.042 C 304.400 13.036,50.346 12.198,48.800 13.199 M125.352 75.300 C 125.506 112.058,125.648 117.760,126.435 118.580 C 126.636 118.789,126.800 119.286,126.800 119.685 C 126.800 120.084,126.960 120.723,127.156 121.105 C 127.352 121.487,127.920 122.655,128.419 123.700 C 128.918 124.745,129.477 125.600,129.663 125.600 C 129.848 125.600,130.000 125.862,130.000 126.183 C 130.000 127.474,136.358 133.004,139.400 134.359 C 140.060 134.653,140.913 135.052,141.295 135.247 C 141.677 135.441,142.341 135.600,142.771 135.600 C 143.201 135.600,143.651 135.758,143.770 135.951 C 144.684 137.430,255.316 137.430,256.230 135.951 C 256.349 135.758,256.799 135.600,257.229 135.600 C 257.659 135.600,258.323 135.441,258.705 135.247 C 259.087 135.052,259.940 134.653,260.600 134.359 C 264.892 132.448,270.048 127.292,271.959 123.000 C 272.253 122.340,272.652 121.487,272.847 121.105 C 273.041 120.723,273.200 120.084,273.200 119.685 C 273.200 119.286,273.364 118.789,273.565 118.580 C 274.352 117.760,274.494 112.058,274.648 75.300 L 274.808 37.200 285.103 37.200 L 295.398 37.200 329.099 70.899 L 362.800 104.598 362.800 229.105 C 362.800 300.355,362.649 353.908,362.447 354.305 C 362.252 354.687,361.847 355.540,361.547 356.200 C 361.246 356.860,360.190 358.210,359.200 359.200 C 358.210 360.190,356.860 361.246,356.200 361.547 C 355.540 361.847,354.687 362.252,354.305 362.447 C 353.923 362.641,347.130 362.800,339.209 362.800 L 324.807 362.800 324.638 318.500 C 324.474 275.239,324.327 268.197,323.570 267.420 C 323.366 267.211,323.200 266.457,323.200 265.744 C 323.200 265.031,323.020 264.336,322.800 264.200 C 322.580 264.064,322.400 263.513,322.400 262.976 C 322.400 262.439,322.220 262.000,322.000 262.000 C 321.780 262.000,321.600 261.755,321.600 261.456 C 321.600 260.799,319.124 255.855,318.700 255.667 C 318.535 255.593,318.400 255.358,318.400 255.143 C 318.400 253.692,308.798 244.030,307.333 244.007 C 307.077 244.003,306.807 243.864,306.733 243.698 C 306.660 243.532,305.340 242.790,303.800 242.049 C 294.817 237.727,301.815 238.000,199.989 238.000 C 140.920 238.000,111.435 238.137,109.164 238.423 C 105.659 238.863,101.176 239.795,99.800 240.369 C 97.587 241.291,93.384 243.433,93.267 243.698 C 93.193 243.864,92.905 244.000,92.626 244.000 C 92.347 244.000,91.554 244.540,90.863 245.200 C 90.172 245.860,89.492 246.400,89.352 246.400 C 88.891 246.400,83.739 251.841,82.974 253.136 C 82.564 253.831,82.086 254.400,81.914 254.400 C 81.741 254.400,81.600 254.655,81.600 254.967 C 81.600 255.278,81.465 255.593,81.300 255.667 C 80.876 255.855,78.400 260.799,78.400 261.456 C 78.400 261.755,78.220 262.000,78.000 262.000 C 77.780 262.000,77.600 262.439,77.600 262.976 C 77.600 263.513,77.420 264.064,77.200 264.200 C 76.980 264.336,76.800 265.031,76.800 265.744 C 76.800 266.457,76.634 267.211,76.430 267.420 C 75.673 268.197,75.526 275.239,75.362 318.500 L 75.193 362.800 60.620 362.800 C 51.336 362.800,45.957 362.655,45.800 362.400 C 45.664 362.180,45.248 361.997,44.876 361.993 C 43.571 361.979,39.398 358.197,38.453 356.172 C 38.153 355.527,37.748 354.687,37.553 354.305 C 37.042 353.300,37.089 46.116,37.600 45.800 C 37.820 45.664,38.000 45.237,38.000 44.852 C 38.000 44.466,38.360 43.764,38.800 43.292 C 39.240 42.820,39.600 42.301,39.600 42.139 C 39.600 41.720,41.681 39.600,42.092 39.600 C 42.280 39.600,42.820 39.240,43.292 38.800 C 43.764 38.360,44.466 38.000,44.852 38.000 C 45.237 38.000,45.664 37.820,45.800 37.600 C 45.962 37.338,59.669 37.200,85.620 37.200 L 125.192 37.200 125.352 75.300 M250.400 75.000 L 250.400 112.800 200.000 112.800 L 149.600 112.800 149.600 75.000 L 149.600 37.200 200.000 37.200 L 250.400 37.200 250.400 75.000 M291.354 262.469 C 293.035 262.947,296.752 265.301,297.309 266.240 C 297.479 266.526,297.839 266.994,298.109 267.280 C 298.379 267.566,298.846 268.340,299.147 269.000 C 299.447 269.660,299.852 270.513,300.047 270.895 C 300.245 271.284,300.400 291.598,300.400 317.195 L 300.400 362.800 200.000 362.800 L 99.600 362.800 99.600 317.195 C 99.600 291.598,99.755 271.284,99.953 270.895 C 100.148 270.513,100.553 269.660,100.853 269.000 C 101.154 268.340,101.715 267.451,102.100 267.025 C 102.485 266.598,102.800 266.148,102.801 266.025 C 102.802 265.581,106.930 262.990,108.350 262.542 C 110.462 261.875,289.016 261.803,291.354 262.469 " stroke="none" fill="#000000" fill-rule="evenodd"></path><path id="path4" d="M48.800 13.199 C 48.470 13.413,46.906 13.591,45.324 13.594 C 43.742 13.597,42.336 13.780,42.200 14.000 C 42.064 14.220,41.333 14.400,40.576 14.400 C 39.819 14.400,39.200 14.580,39.200 14.800 C 39.200 15.020,38.838 15.200,38.395 15.200 C 37.952 15.200,37.277 15.357,36.895 15.550 C 36.513 15.742,35.390 16.297,34.400 16.782 C 31.531 18.188,29.486 19.348,28.611 20.067 C 28.165 20.433,26.874 21.458,25.741 22.343 C 24.609 23.229,22.818 25.089,21.760 26.477 C 20.703 27.864,19.739 29.090,19.619 29.200 C 19.242 29.544,18.046 31.710,16.967 34.000 C 16.397 35.210,15.766 36.513,15.565 36.895 C 15.364 37.277,15.200 37.952,15.200 38.395 C 15.200 38.838,15.020 39.200,14.800 39.200 C 14.580 39.200,14.400 39.794,14.400 40.520 C 14.400 41.246,14.238 42.011,14.039 42.220 C 13.171 43.134,13.088 56.902,13.088 200.000 C 13.088 343.098,13.171 356.866,14.039 357.780 C 14.238 357.989,14.400 358.754,14.400 359.480 C 14.400 360.206,14.580 360.800,14.800 360.800 C 15.020 360.800,15.200 361.162,15.200 361.605 C 15.200 362.048,15.364 362.723,15.565 363.105 C 15.766 363.487,16.397 364.790,16.967 366.000 C 18.046 368.290,19.242 370.456,19.619 370.800 C 19.739 370.910,20.703 372.136,21.760 373.523 C 22.818 374.911,24.609 376.771,25.741 377.657 C 26.874 378.542,28.165 379.567,28.611 379.933 C 29.486 380.652,31.531 381.812,34.400 383.218 C 35.390 383.703,36.513 384.258,36.895 384.450 C 37.277 384.643,37.952 384.800,38.395 384.800 C 38.838 384.800,39.200 384.980,39.200 385.200 C 39.200 385.420,39.794 385.600,40.520 385.600 C 41.246 385.600,42.011 385.762,42.220 385.961 C 43.134 386.829,56.895 386.913,200.000 386.921 C 356.766 386.930,356.682 386.931,361.000 385.223 C 363.358 384.291,364.010 384.002,366.350 382.856 C 374.835 378.698,380.661 372.256,384.489 362.800 C 384.711 362.250,385.052 361.487,385.247 361.105 C 385.441 360.723,385.600 359.904,385.600 359.285 C 385.600 358.666,385.762 357.989,385.961 357.780 C 387.432 356.231,387.429 95.600,385.958 95.600 C 385.761 95.600,385.600 95.240,385.600 94.800 C 385.600 94.360,385.432 94.000,385.227 94.000 C 385.022 94.000,384.743 93.652,384.608 93.226 C 384.286 92.210,307.796 15.716,306.780 15.394 C 306.351 15.258,306.000 14.978,306.000 14.773 C 306.000 14.568,305.640 14.400,305.200 14.400 C 304.760 14.400,304.400 14.239,304.400 14.042 C 304.400 13.036,50.346 12.198,48.800 13.199 M125.352 75.300 C 125.506 112.058,125.648 117.760,126.435 118.580 C 126.636 118.789,126.800 119.286,126.800 119.685 C 126.800 120.084,126.960 120.723,127.156 121.105 C 127.352 121.487,127.920 122.655,128.419 123.700 C 128.918 124.745,129.477 125.600,129.663 125.600 C 129.848 125.600,130.000 125.862,130.000 126.183 C 130.000 127.474,136.358 133.004,139.400 134.359 C 140.060 134.653,140.913 135.052,141.295 135.247 C 141.677 135.441,142.341 135.600,142.771 135.600 C 143.201 135.600,143.651 135.758,143.770 135.951 C 144.684 137.430,255.316 137.430,256.230 135.951 C 256.349 135.758,256.799 135.600,257.229 135.600 C 257.659 135.600,258.323 135.441,258.705 135.247 C 259.087 135.052,259.940 134.653,260.600 134.359 C 264.892 132.448,270.048 127.292,271.959 123.000 C 272.253 122.340,272.652 121.487,272.847 121.105 C 273.041 120.723,273.200 120.084,273.200 119.685 C 273.200 119.286,273.364 118.789,273.565 118.580 C 274.352 117.760,274.494 112.058,274.648 75.300 L 274.808 37.200 285.103 37.200 L 295.398 37.200 329.099 70.899 L 362.800 104.598 362.800 229.105 C 362.800 300.355,362.649 353.908,362.447 354.305 C 362.252 354.687,361.847 355.540,361.547 356.200 C 361.246 356.860,360.190 358.210,359.200 359.200 C 358.210 360.190,356.860 361.246,356.200 361.547 C 355.540 361.847,354.687 362.252,354.305 362.447 C 353.923 362.641,347.130 362.800,339.209 362.800 L 324.807 362.800 324.638 318.500 C 324.474 275.239,324.327 268.197,323.570 267.420 C 323.366 267.211,323.200 266.457,323.200 265.744 C 323.200 265.031,323.020 264.336,322.800 264.200 C 322.580 264.064,322.400 263.513,322.400 262.976 C 322.400 262.439,322.220 262.000,322.000 262.000 C 321.780 262.000,321.600 261.755,321.600 261.456 C 321.600 260.799,319.124 255.855,318.700 255.667 C 318.535 255.593,318.400 255.358,318.400 255.143 C 318.400 253.692,308.798 244.030,307.333 244.007 C 307.077 244.003,306.807 243.864,306.733 243.698 C 306.660 243.532,305.340 242.790,303.800 242.049 C 294.817 237.727,301.815 238.000,199.989 238.000 C 140.920 238.000,111.435 238.137,109.164 238.423 C 105.659 238.863,101.176 239.795,99.800 240.369 C 97.587 241.291,93.384 243.433,93.267 243.698 C 93.193 243.864,92.905 244.000,92.626 244.000 C 92.347 244.000,91.554 244.540,90.863 245.200 C 90.172 245.860,89.492 246.400,89.352 246.400 C 88.891 246.400,83.739 251.841,82.974 253.136 C 82.564 253.831,82.086 254.400,81.914 254.400 C 81.741 254.400,81.600 254.655,81.600 254.967 C 81.600 255.278,81.465 255.593,81.300 255.667 C 80.876 255.855,78.400 260.799,78.400 261.456 C 78.400 261.755,78.220 262.000,78.000 262.000 C 77.780 262.000,77.600 262.439,77.600 262.976 C 77.600 263.513,77.420 264.064,77.200 264.200 C 76.980 264.336,76.800 265.031,76.800 265.744 C 76.800 266.457,76.634 267.211,76.430 267.420 C 75.673 268.197,75.526 275.239,75.362 318.500 L 75.193 362.800 60.620 362.800 C 51.336 362.800,45.957 362.655,45.800 362.400 C 45.664 362.180,45.248 361.997,44.876 361.993 C 43.571 361.979,39.398 358.197,38.453 356.172 C 38.153 355.527,37.748 354.687,37.553 354.305 C 37.042 353.300,37.089 46.116,37.600 45.800 C 37.820 45.664,38.000 45.237,38.000 44.852 C 38.000 44.466,38.360 43.764,38.800 43.292 C 39.240 42.820,39.600 42.301,39.600 42.139 C 39.600 41.720,41.681 39.600,42.092 39.600 C 42.280 39.600,42.820 39.240,43.292 38.800 C 43.764 38.360,44.466 38.000,44.852 38.000 C 45.237 38.000,45.664 37.820,45.800 37.600 C 45.962 37.338,59.669 37.200,85.620 37.200 L 125.192 37.200 125.352 75.300 M250.400 75.000 L 250.400 112.800 200.000 112.800 L 149.600 112.800 149.600 75.000 L 149.600 37.200 200.000 37.200 L 250.400 37.200 250.400 75.000 M291.354 262.469 C 293.035 262.947,296.752 265.301,297.309 266.240 C 297.479 266.526,297.839 266.994,298.109 267.280 C 298.379 267.566,298.846 268.340,299.147 269.000 C 299.447 269.660,299.852 270.513,300.047 270.895 C 300.245 271.284,300.400 291.598,300.400 317.195 L 300.400 362.800 200.000 362.800 L 99.600 362.800 99.600 317.195 C 99.600 291.598,99.755 271.284,99.953 270.895 C 100.148 270.513,100.553 269.660,100.853 269.000 C 101.154 268.340,101.715 267.451,102.100 267.025 C 102.485 266.598,102.800 266.148,102.801 266.025 C 102.802 265.581,106.930 262.990,108.350 262.542 C 110.462 261.875,289.016 261.803,291.354 262.469 " stroke="none" fill="#000000" fill-rule="evenodd"></path></g></svg>