<svg id="svg" version="1.1" xmlns="http://www.w3.org/2000/svg" xmlns:xlink="http://www.w3.org/1999/xlink" width="400" height="400" viewBox="0, 0, 400,400"><g id="svgg"><path id="path0" d="M158.706 0.483 C 158.606 0.782,157.414 1.026,155.572 1.123 C 153.938 1.210,152.429 1.443,152.220 1.641 C 152.011 1.838,151.424 2.000,150.915 2.000 C 150.406 2.000,149.677 2.158,149.295 2.351 C 148.913 2.544,147.250 3.382,145.600 4.213 C 143.950 5.044,142.510 5.831,142.400 5.962 C 142.290 6.093,141.390 6.822,140.400 7.583 C 139.410 8.344,138.371 9.280,138.091 9.664 C 137.811 10.047,137.351 10.595,137.069 10.880 C 135.473 12.497,131.893 18.805,130.304 22.800 C 130.086 23.350,129.748 24.113,129.553 24.495 C 129.359 24.877,129.200 25.631,129.200 26.171 C 129.200 26.711,129.020 27.264,128.800 27.400 C 128.580 27.536,128.400 28.256,128.400 29.000 C 128.400 29.744,128.220 30.464,128.000 30.600 C 127.780 30.736,127.600 31.456,127.600 32.200 C 127.600 32.944,127.420 33.664,127.200 33.800 C 126.980 33.936,126.800 35.171,126.800 36.544 C 126.800 37.917,126.575 39.521,126.300 40.108 L 125.800 41.176 84.000 41.288 C 38.198 41.411,40.979 41.254,39.311 43.799 C 37.538 46.504,37.686 49.162,39.727 51.280 C 41.913 53.547,42.156 53.600,50.346 53.600 C 56.074 53.600,58.007 53.726,58.335 54.122 C 58.601 54.442,58.850 57.962,58.979 63.222 C 59.094 67.940,59.371 76.075,59.594 81.300 C 59.817 86.525,60.180 95.030,60.400 100.200 C 60.620 105.370,60.980 113.830,61.200 119.000 C 61.420 124.170,61.775 132.585,61.989 137.700 C 62.203 142.815,62.568 151.410,62.800 156.800 C 63.031 162.190,63.391 170.650,63.600 175.600 C 63.965 184.260,64.339 193.073,65.197 213.200 C 65.417 218.370,65.779 226.920,66.000 232.200 C 66.406 241.871,66.838 252.127,67.584 269.800 C 67.807 275.080,68.167 283.630,68.384 288.800 C 68.601 293.970,68.965 302.610,69.193 308.000 C 69.655 318.907,70.155 331.094,70.769 346.400 C 71.426 362.763,71.900 370.446,72.399 372.800 C 72.918 375.247,74.232 379.424,74.819 380.495 C 75.029 380.877,75.200 381.462,75.200 381.795 C 75.200 382.128,75.380 382.400,75.600 382.400 C 75.820 382.400,76.000 382.670,76.000 383.000 C 76.000 383.330,76.136 383.600,76.302 383.600 C 76.469 383.600,76.863 384.185,77.178 384.900 C 77.493 385.615,77.978 386.429,78.257 386.710 C 78.535 386.990,79.446 388.068,80.281 389.104 C 81.966 391.194,83.135 392.398,84.064 393.000 C 84.403 393.220,85.463 393.920,86.420 394.555 C 87.376 395.191,89.068 396.065,90.180 396.498 C 91.291 396.931,92.560 397.433,93.000 397.613 C 94.244 398.121,95.915 398.427,99.568 398.817 C 101.420 399.014,103.121 399.361,103.348 399.588 C 103.924 400.164,296.076 400.164,296.652 399.588 C 296.879 399.361,298.580 399.014,300.432 398.817 C 304.094 398.426,305.762 398.120,307.000 397.610 C 307.440 397.429,308.430 397.057,309.200 396.783 C 311.053 396.124,315.600 393.519,315.600 393.117 C 315.600 392.943,315.788 392.800,316.018 392.800 C 316.530 392.800,317.642 391.682,319.995 388.799 C 320.981 387.589,321.881 386.510,321.995 386.400 C 322.387 386.018,323.651 383.796,323.871 383.100 C 323.993 382.715,324.252 382.400,324.447 382.400 C 324.641 382.400,324.800 382.051,324.800 381.624 C 324.800 381.197,324.980 380.736,325.200 380.600 C 325.420 380.464,325.600 380.003,325.600 379.576 C 325.600 379.149,325.780 378.800,326.000 378.800 C 326.220 378.800,326.400 378.438,326.400 377.995 C 326.400 377.552,326.560 376.877,326.755 376.495 C 327.865 374.326,328.509 366.839,329.224 347.800 C 329.625 337.128,329.902 330.305,330.813 308.600 C 331.035 303.320,331.398 294.590,331.620 289.200 C 332.067 278.347,332.582 266.038,333.210 251.200 C 333.438 245.810,333.794 237.350,334.002 232.400 C 334.210 227.450,334.569 218.990,334.801 213.600 C 335.032 208.210,335.397 199.570,335.612 194.400 C 335.827 189.230,336.183 180.770,336.403 175.600 C 337.261 155.473,337.635 146.660,338.000 138.000 C 338.209 133.050,338.569 124.590,338.800 119.200 C 339.032 113.810,339.397 105.215,339.611 100.100 C 339.825 94.985,340.183 86.525,340.406 81.300 C 340.629 76.075,340.906 67.940,341.021 63.222 C 341.150 57.962,341.399 54.442,341.665 54.122 C 341.993 53.727,343.911 53.600,349.569 53.600 C 356.672 53.600,359.187 53.260,359.197 52.300 C 359.199 52.135,359.438 52.000,359.729 52.000 C 362.090 52.000,362.451 45.091,360.200 43.000 C 358.416 41.343,360.262 41.405,309.800 41.304 C 254.940 41.194,260.000 41.467,260.000 38.616 C 260.000 37.423,259.820 36.336,259.600 36.200 C 259.380 36.064,259.200 35.074,259.200 34.000 C 259.200 32.926,259.020 31.936,258.800 31.800 C 258.580 31.664,258.400 30.944,258.400 30.200 C 258.400 29.456,258.220 28.736,258.000 28.600 C 257.780 28.464,257.600 27.821,257.600 27.171 C 257.600 26.035,257.484 25.682,256.462 23.705 C 256.208 23.213,256.000 22.448,256.000 22.005 C 256.000 21.562,255.820 21.200,255.600 21.200 C 255.380 21.200,255.200 20.840,255.200 20.400 C 255.200 19.960,255.020 19.600,254.800 19.600 C 254.580 19.600,254.396 19.285,254.391 18.900 C 254.386 18.515,254.030 17.750,253.600 17.200 C 253.170 16.650,252.814 15.975,252.809 15.700 C 252.804 15.425,252.620 15.200,252.400 15.200 C 252.180 15.200,252.000 14.992,252.000 14.737 C 252.000 14.134,248.895 10.032,247.657 9.000 C 247.130 8.560,246.046 7.614,245.249 6.898 C 244.452 6.182,242.450 4.940,240.800 4.138 C 239.150 3.336,237.487 2.527,237.105 2.340 C 236.723 2.153,235.994 2.000,235.485 2.000 C 234.976 2.000,234.389 1.838,234.180 1.641 C 233.971 1.443,232.462 1.210,230.828 1.123 C 228.986 1.026,227.794 0.782,227.694 0.483 C 227.460 -0.220,158.940 -0.220,158.706 0.483 M231.366 13.374 C 235.468 14.443,241.600 19.007,241.600 20.993 C 241.600 21.327,241.735 21.601,241.900 21.603 C 242.259 21.607,243.200 23.544,243.200 24.280 C 243.200 24.566,243.380 24.800,243.600 24.800 C 243.820 24.800,244.000 25.072,244.000 25.405 C 244.000 25.738,244.180 26.368,244.400 26.805 C 244.620 27.242,244.980 27.958,245.200 28.395 C 245.420 28.832,245.600 29.631,245.600 30.171 C 245.600 30.711,245.780 31.264,246.000 31.400 C 246.220 31.536,246.400 32.256,246.400 33.000 C 246.400 33.744,246.580 34.464,246.800 34.600 C 247.020 34.736,247.200 35.881,247.200 37.144 C 247.200 38.407,247.388 39.628,247.617 39.857 C 248.930 41.170,247.459 41.204,192.957 41.101 L 139.000 41.000 138.871 39.649 C 138.800 38.906,138.935 38.105,139.171 37.869 C 139.407 37.633,139.600 36.587,139.600 35.544 C 139.600 34.501,139.780 33.536,140.000 33.400 C 140.220 33.264,140.400 32.533,140.400 31.776 C 140.400 31.019,140.580 30.400,140.800 30.400 C 141.020 30.400,141.200 29.948,141.200 29.395 C 141.200 28.842,141.380 28.032,141.600 27.595 C 141.820 27.158,142.180 26.442,142.400 26.005 C 142.620 25.568,142.800 24.938,142.800 24.605 C 142.800 24.272,142.980 24.000,143.200 24.000 C 143.420 24.000,143.600 23.708,143.600 23.351 C 143.600 20.493,150.128 14.674,154.758 13.404 C 157.657 12.609,228.323 12.582,231.366 13.374 M328.909 57.800 C 328.859 60.000,328.630 66.210,328.399 71.600 C 327.778 86.099,327.265 98.192,326.804 109.200 C 326.578 114.590,326.214 123.185,325.996 128.300 C 325.008 151.495,324.574 162.191,323.654 186.000 C 323.125 199.703,322.071 226.017,321.572 238.000 C 321.357 243.170,320.997 251.990,320.773 257.600 C 320.353 268.100,319.921 278.530,319.200 295.600 C 318.972 300.990,318.607 309.720,318.389 315.000 C 318.171 320.280,317.815 328.740,317.599 333.800 C 317.383 338.860,317.024 347.410,316.801 352.800 C 316.257 365.937,315.536 373.600,314.844 373.600 C 314.696 373.600,314.341 374.392,314.055 375.359 C 313.770 376.326,313.190 377.489,312.768 377.942 C 312.346 378.396,312.000 378.925,312.000 379.120 C 312.000 379.722,308.692 382.982,306.800 384.245 C 305.157 385.342,304.267 385.683,300.000 386.849 C 298.305 387.312,100.792 387.119,99.000 386.652 C 94.611 385.509,88.000 380.900,88.000 378.983 C 88.000 378.662,87.850 378.400,87.668 378.400 C 87.344 378.400,86.698 377.231,85.900 375.200 C 85.684 374.650,85.348 373.887,85.153 373.505 C 84.959 373.123,84.800 372.394,84.800 371.885 C 84.800 371.376,84.635 370.789,84.434 370.580 C 83.943 370.071,83.871 368.748,82.416 333.600 C 81.606 314.044,81.215 304.705,80.816 295.400 C 80.192 280.818,79.688 268.512,79.234 256.800 C 79.008 250.970,78.645 242.060,78.426 237.000 C 77.863 223.981,77.208 207.238,76.985 200.200 C 76.881 196.900,76.617 190.015,76.398 184.900 C 75.639 167.168,75.205 156.952,74.796 147.200 C 74.570 141.810,74.210 133.350,73.996 128.400 C 73.782 123.450,73.422 114.990,73.196 109.600 C 72.805 100.275,72.545 94.115,71.612 72.200 C 71.388 66.920,71.100 60.828,70.974 58.662 C 70.847 56.497,70.841 54.471,70.959 54.162 C 71.145 53.679,89.576 53.613,200.088 53.699 L 329.000 53.800 328.909 57.800 M131.400 109.200 C 131.264 109.420,130.785 109.600,130.336 109.600 C 129.498 109.600,127.390 111.525,126.500 113.103 C 125.519 114.842,125.815 340.341,126.800 341.600 C 127.230 342.150,127.588 342.780,127.594 343.000 C 127.601 343.220,128.100 343.643,128.703 343.939 C 133.672 346.382,137.709 344.133,138.191 338.654 C 138.797 331.768,138.226 113.443,137.600 112.415 C 136.756 111.030,136.365 110.675,135.000 110.053 C 134.340 109.753,133.487 109.348,133.105 109.153 C 132.201 108.693,131.705 108.707,131.400 109.200 M199.400 109.200 C 199.264 109.420,198.713 109.600,198.176 109.600 C 197.639 109.600,197.200 109.780,197.200 110.000 C 197.200 110.220,196.940 110.400,196.623 110.400 C 196.305 110.400,195.726 110.940,195.336 111.600 C 194.946 112.260,194.486 112.800,194.314 112.800 C 193.742 112.800,193.927 340.683,194.500 341.690 C 196.989 346.067,203.011 346.067,205.500 341.690 C 206.073 340.683,206.258 112.800,205.686 112.800 C 205.514 112.800,205.054 112.260,204.664 111.600 C 204.274 110.940,203.695 110.400,203.377 110.400 C 203.060 110.400,202.800 110.220,202.800 110.000 C 202.800 109.780,202.350 109.600,201.800 109.600 C 201.250 109.600,200.800 109.420,200.800 109.200 C 200.800 108.980,200.541 108.800,200.224 108.800 C 199.907 108.800,199.536 108.980,199.400 109.200 M266.800 109.177 C 266.470 109.359,265.660 109.753,265.000 110.054 C 263.635 110.675,263.244 111.030,262.400 112.415 C 261.774 113.443,261.203 331.768,261.809 338.654 C 262.291 344.133,266.328 346.382,271.297 343.939 C 271.900 343.643,272.399 343.220,272.406 343.000 C 272.412 342.780,272.770 342.150,273.200 341.600 C 274.185 340.341,274.481 114.842,273.500 113.103 C 272.610 111.525,270.502 109.600,269.664 109.600 C 269.215 109.600,268.736 109.420,268.600 109.200 C 268.308 108.727,267.633 108.719,266.800 109.177 " stroke="none" fill="#000000" fill-rule="evenodd"></path><path id="path1" d="M158.706 0.483 C 158.606 0.782,157.414 1.026,155.572 1.123 C 153.938 1.210,152.429 1.443,152.220 1.641 C 152.011 1.838,151.424 2.000,150.915 2.000 C 150.406 2.000,149.677 2.158,149.295 2.351 C 148.913 2.544,147.250 3.382,145.600 4.213 C 143.950 5.044,142.510 5.831,142.400 5.962 C 142.290 6.093,141.390 6.822,140.400 7.583 C 139.410 8.344,138.371 9.280,138.091 9.664 C 137.811 10.047,137.351 10.595,137.069 10.880 C 135.473 12.497,131.893 18.805,130.304 22.800 C 130.086 23.350,129.748 24.113,129.553 24.495 C 129.359 24.877,129.200 25.631,129.200 26.171 C 129.200 26.711,129.020 27.264,128.800 27.400 C 128.580 27.536,128.400 28.256,128.400 29.000 C 128.400 29.744,128.220 30.464,128.000 30.600 C 127.780 30.736,127.600 31.456,127.600 32.200 C 127.600 32.944,127.420 33.664,127.200 33.800 C 126.980 33.936,126.800 35.171,126.800 36.544 C 126.800 37.917,126.575 39.521,126.300 40.108 L 125.800 41.176 84.000 41.288 C 38.198 41.411,40.979 41.254,39.311 43.799 C 37.538 46.504,37.686 49.162,39.727 51.280 C 41.913 53.547,42.156 53.600,50.346 53.600 C 56.074 53.600,58.007 53.726,58.335 54.122 C 58.601 54.442,58.850 57.962,58.979 63.222 C 59.094 67.940,59.371 76.075,59.594 81.300 C 59.817 86.525,60.180 95.030,60.400 100.200 C 60.620 105.370,60.980 113.830,61.200 119.000 C 61.420 124.170,61.775 132.585,61.989 137.700 C 62.203 142.815,62.568 151.410,62.800 156.800 C 63.031 162.190,63.391 170.650,63.600 175.600 C 63.965 184.260,64.339 193.073,65.197 213.200 C 65.417 218.370,65.779 226.920,66.000 232.200 C 66.406 241.871,66.838 252.127,67.584 269.800 C 67.807 275.080,68.167 283.630,68.384 288.800 C 68.601 293.970,68.965 302.610,69.193 308.000 C 69.655 318.907,70.155 331.094,70.769 346.400 C 71.426 362.763,71.900 370.446,72.399 372.800 C 72.918 375.247,74.232 379.424,74.819 380.495 C 75.029 380.877,75.200 381.462,75.200 381.795 C 75.200 382.128,75.380 382.400,75.600 382.400 C 75.820 382.400,76.000 382.670,76.000 383.000 C 76.000 383.330,76.136 383.600,76.302 383.600 C 76.469 383.600,76.863 384.185,77.178 384.900 C 77.493 385.615,77.978 386.429,78.257 386.710 C 78.535 386.990,79.446 388.068,80.281 389.104 C 81.966 391.194,83.135 392.398,84.064 393.000 C 84.403 393.220,85.463 393.920,86.420 394.555 C 87.376 395.191,89.068 396.065,90.180 396.498 C 91.291 396.931,92.560 397.433,93.000 397.613 C 94.244 398.121,95.915 398.427,99.568 398.817 C 101.420 399.014,103.121 399.361,103.348 399.588 C 103.924 400.164,296.076 400.164,296.652 399.588 C 296.879 399.361,298.580 399.014,300.432 398.817 C 304.094 398.426,305.762 398.120,307.000 397.610 C 307.440 397.429,308.430 397.057,309.200 396.783 C 311.053 396.124,315.600 393.519,315.600 393.117 C 315.600 392.943,315.788 392.800,316.018 392.800 C 316.530 392.800,317.642 391.682,319.995 388.799 C 320.981 387.589,321.881 386.510,321.995 386.400 C 322.387 386.018,323.651 383.796,323.871 383.100 C 323.993 382.715,324.252 382.400,324.447 382.400 C 324.641 382.400,324.800 382.051,324.800 381.624 C 324.800 381.197,324.980 380.736,325.200 380.600 C 325.420 380.464,325.600 380.003,325.600 379.576 C 325.600 379.149,325.780 378.800,326.000 378.800 C 326.220 378.800,326.400 378.438,326.400 377.995 C 326.400 377.552,326.560 376.877,326.755 376.495 C 327.865 374.326,328.509 366.839,329.224 347.800 C 329.625 337.128,329.902 330.305,330.813 308.600 C 331.035 303.320,331.398 294.590,331.620 289.200 C 332.067 278.347,332.582 266.038,333.210 251.200 C 333.438 245.810,333.794 237.350,334.002 232.400 C 334.210 227.450,334.569 218.990,334.801 213.600 C 335.032 208.210,335.397 199.570,335.612 194.400 C 335.827 189.230,336.183 180.770,336.403 175.600 C 337.261 155.473,337.635 146.660,338.000 138.000 C 338.209 133.050,338.569 124.590,338.800 119.200 C 339.032 113.810,339.397 105.215,339.611 100.100 C 339.825 94.985,340.183 86.525,340.406 81.300 C 340.629 76.075,340.906 67.940,341.021 63.222 C 341.150 57.962,341.399 54.442,341.665 54.122 C 341.993 53.727,343.911 53.600,349.569 53.600 C 356.672 53.600,359.187 53.260,359.197 52.300 C 359.199 52.135,359.438 52.000,359.729 52.000 C 362.090 52.000,362.451 45.091,360.200 43.000 C 358.416 41.343,360.262 41.405,309.800 41.304 C 254.940 41.194,260.000 41.467,260.000 38.616 C 260.000 37.423,259.820 36.336,259.600 36.200 C 259.380 36.064,259.200 35.074,259.200 34.000 C 259.200 32.926,259.020 31.936,258.800 31.800 C 258.580 31.664,258.400 30.944,258.400 30.200 C 258.400 29.456,258.220 28.736,258.000 28.600 C 257.780 28.464,257.600 27.821,257.600 27.171 C 257.600 26.035,257.484 25.682,256.462 23.705 C 256.208 23.213,256.000 22.448,256.000 22.005 C 256.000 21.562,255.820 21.200,255.600 21.200 C 255.380 21.200,255.200 20.840,255.200 20.400 C 255.200 19.960,255.020 19.600,254.800 19.600 C 254.580 19.600,254.396 19.285,254.391 18.900 C 254.386 18.515,254.030 17.750,253.600 17.200 C 253.170 16.650,252.814 15.975,252.809 15.700 C 252.804 15.425,252.620 15.200,252.400 15.200 C 252.180 15.200,252.000 14.992,252.000 14.737 C 252.000 14.134,248.895 10.032,247.657 9.000 C 247.130 8.560,246.046 7.614,245.249 6.898 C 244.452 6.182,242.450 4.940,240.800 4.138 C 239.150 3.336,237.487 2.527,237.105 2.340 C 236.723 2.153,235.994 2.000,235.485 2.000 C 234.976 2.000,234.389 1.838,234.180 1.641 C 233.971 1.443,232.462 1.210,230.828 1.123 C 228.986 1.026,227.794 0.782,227.694 0.483 C 227.460 -0.220,158.940 -0.220,158.706 0.483 M231.366 13.374 C 235.468 14.443,241.600 19.007,241.600 20.993 C 241.600 21.327,241.735 21.601,241.900 21.603 C 242.259 21.607,243.200 23.544,243.200 24.280 C 243.200 24.566,243.380 24.800,243.600 24.800 C 243.820 24.800,244.000 25.072,244.000 25.405 C 244.000 25.738,244.180 26.368,244.400 26.805 C 244.620 27.242,244.980 27.958,245.200 28.395 C 245.420 28.832,245.600 29.631,245.600 30.171 C 245.600 30.711,245.780 31.264,246.000 31.400 C 246.220 31.536,246.400 32.256,246.400 33.000 C 246.400 33.744,246.580 34.464,246.800 34.600 C 247.020 34.736,247.200 35.881,247.200 37.144 C 247.200 38.407,247.388 39.628,247.617 39.857 C 248.930 41.170,247.459 41.204,192.957 41.101 L 139.000 41.000 138.871 39.649 C 138.800 38.906,138.935 38.105,139.171 37.869 C 139.407 37.633,139.600 36.587,139.600 35.544 C 139.600 34.501,139.780 33.536,140.000 33.400 C 140.220 33.264,140.400 32.533,140.400 31.776 C 140.400 31.019,140.580 30.400,140.800 30.400 C 141.020 30.400,141.200 29.948,141.200 29.395 C 141.200 28.842,141.380 28.032,141.600 27.595 C 141.820 27.158,142.180 26.442,142.400 26.005 C 142.620 25.568,142.800 24.938,142.800 24.605 C 142.800 24.272,142.980 24.000,143.200 24.000 C 143.420 24.000,143.600 23.708,143.600 23.351 C 143.600 20.493,150.128 14.674,154.758 13.404 C 157.657 12.609,228.323 12.582,231.366 13.374 M328.909 57.800 C 328.859 60.000,328.630 66.210,328.399 71.600 C 327.778 86.099,327.265 98.192,326.804 109.200 C 326.578 114.590,326.214 123.185,325.996 128.300 C 325.008 151.495,324.574 162.191,323.654 186.000 C 323.125 199.703,322.071 226.017,321.572 238.000 C 321.357 243.170,320.997 251.990,320.773 257.600 C 320.353 268.100,319.921 278.530,319.200 295.600 C 318.972 300.990,318.607 309.720,318.389 315.000 C 318.171 320.280,317.815 328.740,317.599 333.800 C 317.383 338.860,317.024 347.410,316.801 352.800 C 316.257 365.937,315.536 373.600,314.844 373.600 C 314.696 373.600,314.341 374.392,314.055 375.359 C 313.770 376.326,313.190 377.489,312.768 377.942 C 312.346 378.396,312.000 378.925,312.000 379.120 C 312.000 379.722,308.692 382.982,306.800 384.245 C 305.157 385.342,304.267 385.683,300.000 386.849 C 298.305 387.312,100.792 387.119,99.000 386.652 C 94.611 385.509,88.000 380.900,88.000 378.983 C 88.000 378.662,87.850 378.400,87.668 378.400 C 87.344 378.400,86.698 377.231,85.900 375.200 C 85.684 374.650,85.348 373.887,85.153 373.505 C 84.959 373.123,84.800 372.394,84.800 371.885 C 84.800 371.376,84.635 370.789,84.434 370.580 C 83.943 370.071,83.871 368.748,82.416 333.600 C 81.606 314.044,81.215 304.705,80.816 295.400 C 80.192 280.818,79.688 268.512,79.234 256.800 C 79.008 250.970,78.645 242.060,78.426 237.000 C 77.863 223.981,77.208 207.238,76.985 200.200 C 76.881 196.900,76.617 190.015,76.398 184.900 C 75.639 167.168,75.205 156.952,74.796 147.200 C 74.570 141.810,74.210 133.350,73.996 128.400 C 73.782 123.450,73.422 114.990,73.196 109.600 C 72.805 100.275,72.545 94.115,71.612 72.200 C 71.388 66.920,71.100 60.828,70.974 58.662 C 70.847 56.497,70.841 54.471,70.959 54.162 C 71.145 53.679,89.576 53.613,200.088 53.699 L 329.000 53.800 328.909 57.800 M131.400 109.200 C 131.264 109.420,130.785 109.600,130.336 109.600 C 129.498 109.600,127.390 111.525,126.500 113.103 C 125.519 114.842,125.815 340.341,126.800 341.600 C 127.230 342.150,127.588 342.780,127.594 343.000 C 127.601 343.220,128.100 343.643,128.703 343.939 C 133.672 346.382,137.709 344.133,138.191 338.654 C 138.797 331.768,138.226 113.443,137.600 112.415 C 136.756 111.030,136.365 110.675,135.000 110.053 C 134.340 109.753,133.487 109.348,133.105 109.153 C 132.201 108.693,131.705 108.707,131.400 109.200 M199.400 109.200 C 199.264 109.420,198.713 109.600,198.176 109.600 C 197.639 109.600,197.200 109.780,197.200 110.000 C 197.200 110.220,196.940 110.400,196.623 110.400 C 196.305 110.400,195.726 110.940,195.336 111.600 C 194.946 112.260,194.486 112.800,194.314 112.800 C 193.742 112.800,193.927 340.683,194.500 341.690 C 196.989 346.067,203.011 346.067,205.500 341.690 C 206.073 340.683,206.258 112.800,205.686 112.800 C 205.514 112.800,205.054 112.260,204.664 111.600 C 204.274 110.940,203.695 110.400,203.377 110.400 C 203.060 110.400,202.800 110.220,202.800 110.000 C 202.800 109.780,202.350 109.600,201.800 109.600 C 201.250 109.600,200.800 109.420,200.800 109.200 C 200.800 108.980,200.541 108.800,200.224 108.800 C 199.907 108.800,199.536 108.980,199.400 109.200 M266.800 109.177 C 266.470 109.359,265.660 109.753,265.000 110.054 C 263.635 110.675,263.244 111.030,262.400 112.415 C 261.774 113.443,261.203 331.768,261.809 338.654 C 262.291 344.133,266.328 346.382,271.297 343.939 C 271.900 343.643,272.399 343.220,272.406 343.000 C 272.412 342.780,272.770 342.150,273.200 341.600 C 274.185 340.341,274.481 114.842,273.500 113.103 C 272.610 111.525,270.502 109.600,269.664 109.600 C 269.215 109.600,268.736 109.420,268.600 109.200 C 268.308 108.727,267.633 108.719,266.800 109.177 " stroke="none" fill="#000000" fill-rule="evenodd"></path><path id="path2" d="" stroke="none" fill="#080404" fill-rule="evenodd"></path><path id="path3" d="" stroke="none" fill="#080404" fill-rule="evenodd"></path><path id="path4" d="" stroke="none" fill="#080404" fill-rule="evenodd"></path></g></svg>