<svg id="svg" version="1.1" xmlns="http://www.w3.org/2000/svg" xmlns:xlink="http://www.w3.org/1999/xlink" width="400" height="400" viewBox="0, 0, 400,400"><g id="svgg"><path id="path0" d="M15.747 3.330 C 14.618 4.468,12.548 6.499,11.147 7.843 C 3.366 15.305,1.091 18.016,1.870 18.898 C 2.272 19.352,43.055 60.185,92.500 109.639 C 141.945 159.092,182.400 199.758,182.400 200.007 C 182.400 200.257,141.945 240.920,92.500 290.371 C -12.854 395.737,0.811 381.632,2.461 383.313 C 3.198 384.064,5.436 386.370,7.436 388.439 C 11.728 392.878,17.865 398.800,18.174 398.800 C 18.294 398.800,59.162 358.030,108.992 308.200 C 158.822 258.370,199.785 217.600,200.020 217.600 C 200.256 217.600,241.217 258.370,291.045 308.200 C 340.872 358.030,381.779 398.800,381.950 398.800 C 382.355 398.800,398.800 382.355,398.800 381.950 C 398.800 381.779,358.030 340.872,308.200 291.045 C 258.370 241.217,217.600 200.256,217.600 200.020 C 217.600 199.785,258.370 158.822,308.200 108.992 C 358.030 59.162,398.800 18.294,398.800 18.174 C 398.800 17.865,392.878 11.728,388.439 7.436 C 386.370 5.436,384.064 3.198,383.313 2.461 C 381.632 0.811,395.737 -12.854,290.371 92.500 C 240.920 141.945,200.257 182.400,200.008 182.400 C 199.760 182.400,158.786 141.630,108.955 91.800 C 59.125 41.970,18.230 1.213,18.077 1.230 C 17.925 1.246,16.876 2.191,15.747 3.330 " stroke="none" fill="#000000" fill-rule="evenodd"></path><path id="path1" d="M15.747 3.330 C 14.618 4.468,12.548 6.499,11.147 7.843 C 3.366 15.305,1.091 18.016,1.870 18.898 C 2.272 19.352,43.055 60.185,92.500 109.639 C 141.945 159.092,182.400 199.758,182.400 200.007 C 182.400 200.257,141.945 240.920,92.500 290.371 C -12.854 395.737,0.811 381.632,2.461 383.313 C 3.198 384.064,5.436 386.370,7.436 388.439 C 11.728 392.878,17.865 398.800,18.174 398.800 C 18.294 398.800,59.162 358.030,108.992 308.200 C 158.822 258.370,199.785 217.600,200.020 217.600 C 200.256 217.600,241.217 258.370,291.045 308.200 C 340.872 358.030,381.779 398.800,381.950 398.800 C 382.355 398.800,398.800 382.355,398.800 381.950 C 398.800 381.779,358.030 340.872,308.200 291.045 C 258.370 241.217,217.600 200.256,217.600 200.020 C 217.600 199.785,258.370 158.822,308.200 108.992 C 358.030 59.162,398.800 18.294,398.800 18.174 C 398.800 17.865,392.878 11.728,388.439 7.436 C 386.370 5.436,384.064 3.198,383.313 2.461 C 381.632 0.811,395.737 -12.854,290.371 92.500 C 240.920 141.945,200.257 182.400,200.008 182.400 C 199.760 182.400,158.786 141.630,108.955 91.800 C 59.125 41.970,18.230 1.213,18.077 1.230 C 17.925 1.246,16.876 2.191,15.747 3.330 " stroke="none" fill="#000000" fill-rule="evenodd"></path><path id="path2" d="M15.747 3.330 C 14.618 4.468,12.548 6.499,11.147 7.843 C 3.366 15.305,1.091 18.016,1.870 18.898 C 2.272 19.352,43.055 60.185,92.500 109.639 C 141.945 159.092,182.400 199.758,182.400 200.007 C 182.400 200.257,141.945 240.920,92.500 290.371 C -12.854 395.737,0.811 381.632,2.461 383.313 C 3.198 384.064,5.436 386.370,7.436 388.439 C 11.728 392.878,17.865 398.800,18.174 398.800 C 18.294 398.800,59.162 358.030,108.992 308.200 C 158.822 258.370,199.785 217.600,200.020 217.600 C 200.256 217.600,241.217 258.370,291.045 308.200 C 340.872 358.030,381.779 398.800,381.950 398.800 C 382.355 398.800,398.800 382.355,398.800 381.950 C 398.800 381.779,358.030 340.872,308.200 291.045 C 258.370 241.217,217.600 200.256,217.600 200.020 C 217.600 199.785,258.370 158.822,308.200 108.992 C 358.030 59.162,398.800 18.294,398.800 18.174 C 398.800 17.865,392.878 11.728,388.439 7.436 C 386.370 5.436,384.064 3.198,383.313 2.461 C 381.632 0.811,395.737 -12.854,290.371 92.500 C 240.920 141.945,200.257 182.400,200.008 182.400 C 199.760 182.400,158.786 141.630,108.955 91.800 C 59.125 41.970,18.230 1.213,18.077 1.230 C 17.925 1.246,16.876 2.191,15.747 3.330 " stroke="none" fill="#000000" fill-rule="evenodd"></path><path id="path3" d="M15.747 3.330 C 14.618 4.468,12.548 6.499,11.147 7.843 C 3.366 15.305,1.091 18.016,1.870 18.898 C 2.272 19.352,43.055 60.185,92.500 109.639 C 141.945 159.092,182.400 199.758,182.400 200.007 C 182.400 200.257,141.945 240.920,92.500 290.371 C -12.854 395.737,0.811 381.632,2.461 383.313 C 3.198 384.064,5.436 386.370,7.436 388.439 C 11.728 392.878,17.865 398.800,18.174 398.800 C 18.294 398.800,59.162 358.030,108.992 308.200 C 158.822 258.370,199.785 217.600,200.020 217.600 C 200.256 217.600,241.217 258.370,291.045 308.200 C 340.872 358.030,381.779 398.800,381.950 398.800 C 382.355 398.800,398.800 382.355,398.800 381.950 C 398.800 381.779,358.030 340.872,308.200 291.045 C 258.370 241.217,217.600 200.256,217.600 200.020 C 217.600 199.785,258.370 158.822,308.200 108.992 C 358.030 59.162,398.800 18.294,398.800 18.174 C 398.800 17.865,392.878 11.728,388.439 7.436 C 386.370 5.436,384.064 3.198,383.313 2.461 C 381.632 0.811,395.737 -12.854,290.371 92.500 C 240.920 141.945,200.257 182.400,200.008 182.400 C 199.760 182.400,158.786 141.630,108.955 91.800 C 59.125 41.970,18.230 1.213,18.077 1.230 C 17.925 1.246,16.876 2.191,15.747 3.330 " stroke="none" fill="#000000" fill-rule="evenodd"></path><path id="path4" d="M15.747 3.330 C 14.618 4.468,12.548 6.499,11.147 7.843 C 3.366 15.305,1.091 18.016,1.870 18.898 C 2.272 19.352,43.055 60.185,92.500 109.639 C 141.945 159.092,182.400 199.758,182.400 200.007 C 182.400 200.257,141.945 240.920,92.500 290.371 C -12.854 395.737,0.811 381.632,2.461 383.313 C 3.198 384.064,5.436 386.370,7.436 388.439 C 11.728 392.878,17.865 398.800,18.174 398.800 C 18.294 398.800,59.162 358.030,108.992 308.200 C 158.822 258.370,199.785 217.600,200.020 217.600 C 200.256 217.600,241.217 258.370,291.045 308.200 C 340.872 358.030,381.779 398.800,381.950 398.800 C 382.355 398.800,398.800 382.355,398.800 381.950 C 398.800 381.779,358.030 340.872,308.200 291.045 C 258.370 241.217,217.600 200.256,217.600 200.020 C 217.600 199.785,258.370 158.822,308.200 108.992 C 358.030 59.162,398.800 18.294,398.800 18.174 C 398.800 17.865,392.878 11.728,388.439 7.436 C 386.370 5.436,384.064 3.198,383.313 2.461 C 381.632 0.811,395.737 -12.854,290.371 92.500 C 240.920 141.945,200.257 182.400,200.008 182.400 C 199.760 182.400,158.786 141.630,108.955 91.800 C 59.125 41.970,18.230 1.213,18.077 1.230 C 17.925 1.246,16.876 2.191,15.747 3.330 " stroke="none" fill="#000000" fill-rule="evenodd"></path></g></svg>