<svg id="svg" xmlns="http://www.w3.org/2000/svg" xmlns:xlink="http://www.w3.org/1999/xlink" width="400" height="400" viewBox="0, 0, 400,400"><g id="svgg"><path id="path0" d="M180.078 0.509 C 57.151 13.726,-24.606 131.499,6.201 250.981 C 33.575 357.147,143.772 421.442,250.981 393.799 C 357.147 366.425,421.442 256.228,393.799 149.019 C 374.270 73.278,311.095 15.798,232.465 2.230 C 223.308 0.650,189.192 -0.471,180.078 0.509 M214.689 16.403 C 371.201 30.514,440.658 219.386,330.022 330.022 C 224.568 435.476,43.880 377.751,18.405 230.469 C -1.792 113.696,97.136 5.805,214.689 16.403 M194.210 102.404 L 192.188 104.807 192.188 148.497 L 192.188 192.188 146.424 192.188 L 100.661 192.188 98.377 194.471 C 95.162 197.687,95.162 202.313,98.377 205.529 L 100.661 207.813 146.424 207.813 L 192.188 207.813 192.188 255.529 L 192.188 303.245 194.471 305.529 C 197.687 308.745,202.313 308.745,205.529 305.529 L 207.813 303.245 207.813 255.529 L 207.813 207.813 253.576 207.813 L 299.339 207.813 301.623 205.529 C 304.838 202.313,304.838 197.687,301.623 194.471 L 299.339 192.188 253.576 192.188 L 207.813 192.188 207.813 148.497 L 207.813 104.807 205.790 102.404 C 204.046 100.332,203.248 100.000,200.000 100.000 C 196.752 100.000,195.954 100.332,194.210 102.404 " stroke="none" fill="#000000" fill-rule="evenodd"></path></g></svg>